<?xml version="1.0" standalone="no"?>
<!DOCTYPE svg PUBLIC "-//W3C//DTD SVG 20010904//EN"
 "http://www.w3.org/TR/2001/REC-SVG-20010904/DTD/svg10.dtd">
<svg version="1.0" xmlns="http://www.w3.org/2000/svg"
 width="512.000000pt" height="512.000000pt" viewBox="0 0 512.000000 512.000000"
 preserveAspectRatio="xMidYMid meet">

<g transform="translate(0.000000,512.000000) scale(0.100000,-0.100000)"
fill="#3B82F6" stroke="none">
<path d="M3640 5003 c-28 -10 -71 -57 -153 -166 -72 -98 -81 -114 -84 -160 -5
-67 18 -112 80 -153 l47 -31 -31 -41 -30 -41 -91 55 c-49 30 -103 58 -119 61
-45 9 -97 -6 -132 -36 -18 -17 -186 -281 -392 -620 l-360 -590 -108 -1 c-60 0
-107 3 -105 8 2 4 20 39 41 79 155 300 155 639 0 948 -106 210 -311 398 -533
489 -323 132 -709 86 -995 -119 -70 -50 -207 -189 -252 -256 -215 -316 -240
-724 -66 -1062 21 -40 39 -75 41 -79 2 -5 -22 -8 -54 -8 -87 0 -133 -18 -189
-75 -69 -68 -75 -94 -75 -325 0 -231 6 -257 75 -325 55 -56 102 -75 182 -75
l49 0 -153 -952 c-84 -524 -153 -972 -153 -995 0 -107 50 -231 126 -313 54
-58 158 -114 239 -130 43 -8 441 -10 1437 -8 1372 3 1377 3 1404 24 60 44 69
67 72 184 l4 108 36 6 c21 3 53 6 73 6 106 0 329 55 496 121 516 206 919 686
1033 1233 111 529 -26 1020 -385 1379 -49 49 -97 107 -107 128 -26 59 -76 128
-130 179 l-49 47 55 88 c105 166 90 222 -87 331 -51 31 -93 58 -95 59 -5 5 42
95 49 95 5 0 24 -10 44 -21 29 -17 47 -21 95 -17 73 5 87 17 203 172 82 110
82 110 82 171 0 51 -5 68 -25 94 -17 22 -163 113 -460 286 -415 243 -437 255
-485 254 -27 0 -57 -3 -65 -6z m475 -389 c281 -164 402 -240 397 -249 -20 -34
-128 -174 -134 -175 -4 0 -189 106 -412 236 -281 164 -403 240 -398 249 21 36
128 174 135 175 4 0 189 -106 412 -236z m-2680 91 c432 -76 747 -473 722 -910
-39 -673 -773 -1053 -1347 -697 -96 59 -213 176 -272 272 -220 355 -171 798
122 1090 206 206 487 295 775 245z m2467 -427 l207 -120 -25 -49 c-23 -47 -26
-49 -47 -37 -22 13 -418 249 -426 254 -2 2 10 21 25 43 19 26 34 39 44 35 8
-3 108 -59 222 -126z m-148 -224 c289 -173 526 -320 526 -325 0 -5 -21 -44
-47 -85 -40 -62 -52 -74 -68 -69 -71 22 -170 28 -247 17 -419 -61 -621 -564
-358 -894 22 -28 37 -55 34 -62 -48 -87 -132 -205 -142 -201 -7 2 -237 150
-512 327 l-498 323 21 36 c77 127 762 1249 764 1249 1 0 238 -142 527 -316z
m410 -652 c91 -42 149 -100 194 -190 35 -72 37 -81 37 -172 0 -91 -2 -100 -37
-172 -45 -91 -103 -147 -196 -191 -61 -29 -76 -32 -162 -32 -86 0 -101 3 -162
32 -93 44 -151 100 -196 191 -35 72 -37 81 -37 171 0 87 3 102 32 163 40 85
97 147 172 186 78 42 122 52 213 48 61 -3 92 -11 142 -34z m-3598 -313 c81
-87 248 -188 385 -235 348 -118 753 -34 1020 214 57 52 59 53 113 50 l56 -3
-51 -77 c-62 -93 -71 -138 -40 -201 15 -31 38 -55 76 -81 l55 -36 -24 -38 -23
-37 -922 -3 -922 -2 -24 24 c-25 25 -25 27 -25 216 0 189 0 191 25 215 23 24
30 25 148 25 l123 0 30 -31z m2322 -483 l600 -389 -35 -53 c-23 -35 -40 -51
-48 -46 -7 4 -282 182 -613 396 l-600 389 35 53 c23 35 40 51 48 46 6 -4 282
-182 613 -396z m1762 249 c98 -143 169 -308 207 -488 25 -115 24 -375 -1 -512
-118 -641 -604 -1136 -1243 -1266 -94 -19 -149 -23 -429 -27 l-321 -4 -20 81
-21 81 204 0 c150 0 213 4 237 14 43 17 85 68 93 111 6 33 8 34 63 40 343 39
606 172 831 420 298 329 395 854 225 1213 -19 41 -44 86 -55 102 l-20 29 28
33 c59 68 122 206 122 266 l0 25 25 -23 c14 -13 47 -56 75 -95z m-2243 -281
c48 -31 92 -60 97 -64 13 -13 -123 -232 -138 -223 -35 21 -175 129 -176 135 0
9 120 208 125 208 3 0 44 -25 92 -56z m1500 -85 c105 -20 222 -2 355 55 14 6
24 -6 52 -61 67 -134 81 -199 80 -373 -1 -133 -5 -169 -27 -252 -118 -446
-490 -764 -948 -812 l-57 -6 -6 32 c-8 43 -48 92 -89 112 -31 14 -84 16 -421
16 l-386 0 -5 22 c-2 13 -34 210 -70 438 -36 228 -68 427 -71 441 -5 25 -4 25
53 21 84 -6 112 16 201 163 40 66 77 121 82 123 10 4 100 -55 100 -65 0 -3
-35 -62 -77 -132 -66 -108 -77 -134 -81 -181 -5 -76 16 -104 161 -214 112 -85
121 -90 175 -94 84 -6 110 16 207 175 44 72 83 134 86 138 4 3 36 -13 73 -36
130 -81 200 -63 292 76 70 105 78 147 40 219 l-27 48 39 62 c21 33 51 80 65
103 l26 41 60 -24 c33 -14 86 -29 118 -35z m-1875 -54 c-5 -58 11 -96 58 -139
l37 -33 84 -529 85 -529 -458 -5 c-441 -5 -457 -6 -484 -26 -64 -47 -69 -63
-69 -214 0 -151 5 -167 69 -214 25 -19 43 -21 245 -24 l218 -3 -19 -79 -20
-79 -198 -3 c-182 -3 -201 -5 -226 -24 -60 -44 -69 -67 -72 -185 l-4 -109
-392 0 c-467 0 -468 0 -557 89 -59 60 -89 125 -89 195 0 17 23 170 50 341 27
171 50 316 50 323 0 9 69 12 310 12 l310 0 0 80 0 80 -295 0 c-162 0 -295 3
-295 6 0 6 20 131 45 282 l6 32 389 0 390 0 0 80 0 80 -375 0 c-351 0 -375 1
-375 18 0 9 11 80 23 157 l23 140 192 3 192 2 0 80 0 80 -178 0 -179 0 9 58
c4 31 10 67 13 80 l5 22 743 0 742 0 -3 -45z m1000 -267 l57 -38 -75 -125
c-53 -88 -79 -123 -88 -118 -35 21 -175 129 -176 135 0 6 80 143 126 215 l14
23 43 -27 c23 -14 68 -43 99 -65z m168 -1208 l0 -80 -880 0 -880 0 0 80 0 80
880 0 880 0 0 -80z m-522 -320 l20 -80 -378 0 -378 0 20 80 20 80 338 0 338 0
20 -80z m522 -320 l0 -80 -880 0 -880 0 0 80 0 80 880 0 880 0 0 -80z"/>
<path d="M1452 3930 c-178 -198 -326 -360 -330 -359 -4 0 -64 72 -134 160
l-126 159 -59 -47 c-32 -26 -60 -48 -62 -49 -2 -2 81 -109 185 -239 l188 -236
33 33 c17 18 194 213 393 433 l360 400 -58 52 c-31 29 -59 52 -62 52 -3 0
-150 -162 -328 -359z"/>
<path d="M3920 3267 c-49 -16 -133 -102 -148 -153 -28 -94 -8 -169 63 -239 51
-52 102 -75 165 -75 63 0 114 23 165 75 98 97 101 222 8 325 -65 72 -158 97
-253 67z m135 -172 c16 -15 25 -36 25 -55 0 -19 -9 -40 -25 -55 -15 -16 -36
-25 -55 -25 -19 0 -40 9 -55 25 -16 15 -25 36 -25 55 0 19 9 40 25 55 15 16
36 25 55 25 19 0 40 -9 55 -25z"/>
<path d="M1040 2240 l0 -80 80 0 80 0 0 80 0 80 -80 0 -80 0 0 -80z"/>
</g>
</svg>
