<?xml version="1.0" standalone="no"?>
<!DOCTYPE svg PUBLIC "-//W3C//DTD SVG 20010904//EN"
 "http://www.w3.org/TR/2001/REC-SVG-20010904/DTD/svg10.dtd">
<svg version="1.0" xmlns="http://www.w3.org/2000/svg"
 width="512.000000pt" height="512.000000pt" viewBox="0 0 512.000000 512.000000"
 preserveAspectRatio="xMidYMid meet">

<g transform="translate(0.000000,512.000000) scale(0.100000,-0.100000)"
fill="#3B82F6" stroke="none">
<path d="M1410 4967 c-77 -25 -140 -120 -140 -211 l0 -36 -108 0 c-100 0 -110
-2 -130 -23 l-22 -23 0 -722 0 -722 -103 0 c-90 0 -106 -3 -125 -20 l-22 -21
0 -1504 c0 -1492 0 -1505 20 -1525 20 -20 33 -20 1780 -20 1747 0 1760 0 1780
20 20 20 20 33 20 889 l0 870 -26 20 c-23 18 -41 21 -125 21 l-99 0 0 1358 0
1359 -23 21 -23 22 -1187 0 -1187 0 0 49 c0 62 -10 89 -52 136 -58 67 -141 89
-228 62z m120 -147 c13 -13 20 -33 20 -60 l0 -40 -70 0 -70 0 0 35 c0 69 75
110 120 65z m-260 -332 c0 -122 26 -183 96 -228 60 -38 100 -45 162 -30 59 14
115 58 142 111 16 30 20 58 20 139 l0 100 1140 0 1140 0 0 -1310 0 -1310 -553
0 -553 0 -213 458 c-118 251 -216 463 -218 470 -4 9 80 12 401 12 l407 0 24
25 25 24 0 686 c0 672 0 685 -20 705 -20 20 -33 20 -710 20 -677 0 -690 0
-710 -20 -20 -20 -20 -33 -20 -565 l0 -545 -340 0 -340 0 0 675 0 675 60 0 60
0 0 -92z m280 3 c0 -85 -1 -91 -26 -110 -35 -27 -59 -26 -89 4 -23 22 -25 32
-25 110 l0 85 70 0 70 0 0 -89z m1600 -861 l0 -590 -44 0 -44 0 -4 113 c-3 95
-8 121 -30 169 -34 74 -104 148 -173 185 -30 15 -54 30 -52 33 2 3 16 32 32
65 96 198 -54 435 -275 435 -221 0 -371 -237 -275 -435 16 -33 31 -63 32 -66
2 -3 -16 -14 -39 -25 -88 -39 -173 -139 -203 -239 -12 -38 -14 -40 -59 -43
l-46 -3 0 495 0 496 590 0 590 0 0 -590z m-533 259 c43 -16 92 -69 104 -112
28 -104 -52 -207 -162 -207 -144 0 -218 167 -120 274 47 51 116 69 178 45z
m189 -514 c30 -19 60 -49 79 -79 27 -44 30 -58 33 -152 l4 -104 -281 0 -280 0
-43 88 c-37 75 -48 88 -75 97 -18 5 -33 14 -33 21 0 6 15 33 33 60 22 34 49
57 87 77 l55 28 186 -3 186 -3 49 -30z m-335 -903 c158 -337 295 -622 304
-632 18 -20 36 -20 732 -20 l713 0 0 -770 0 -770 -1660 0 -1660 0 0 1405 0
1405 642 -2 642 -3 287 -613z"/>
<path d="M3177 2462 c-24 -26 -21 -75 4 -98 19 -18 39 -19 251 -19 229 0 230
0 249 24 24 29 24 73 1 94 -16 15 -49 17 -254 17 -215 0 -236 -2 -251 -18z"/>
<path d="M3180 2220 c-29 -29 -26 -74 6 -99 25 -20 39 -21 244 -21 205 0 219
1 244 21 32 25 35 70 6 99 -19 19 -33 20 -250 20 -217 0 -231 -1 -250 -20z"/>
<path d="M1114 1579 c-18 -20 -19 -43 -19 -509 0 -466 1 -489 19 -509 l19 -21
1399 0 c1385 0 1398 0 1418 20 19 19 20 33 20 508 0 425 -2 490 -16 510 l-15
22 -1403 0 -1403 0 -19 -21z m1796 -199 l0 -80 -835 0 -835 0 0 80 0 80 835 0
835 0 0 -80z m920 -310 l0 -390 -390 0 -390 0 0 390 0 390 390 0 390 0 0 -390z
m-920 10 l0 -80 -835 0 -835 0 0 80 0 80 835 0 835 0 0 -80z m0 -310 l0 -90
-835 0 -835 0 0 90 0 90 835 0 835 0 0 -90z"/>
<path d="M3352 1332 c-70 -26 -118 -66 -156 -132 -57 -101 -37 -238 47 -322
77 -77 205 -104 298 -63 l40 18 52 -51 c58 -58 93 -66 127 -32 34 34 26 69
-31 126 l-50 51 16 39 c22 51 23 157 1 207 -57 137 -209 207 -344 159z m145
-141 c104 -48 102 -196 -4 -243 -54 -24 -99 -18 -142 18 -96 81 -39 237 89
243 8 0 34 -8 57 -18z"/>
</g>
</svg>
