<?xml version="1.0" standalone="no"?>
<!DOCTYPE svg PUBLIC "-//W3C//DTD SVG 20010904//EN"
 "http://www.w3.org/TR/2001/REC-SVG-20010904/DTD/svg10.dtd">
<svg version="1.0" xmlns="http://www.w3.org/2000/svg"
 width="512.000000pt" height="512.000000pt" viewBox="0 0 512.000000 512.000000"
 preserveAspectRatio="xMidYMid meet">

<g transform="translate(0.000000,512.000000) scale(0.100000,-0.100000)"
fill="#3B82F6" stroke="none">
<path d="M3611 4908 c-51 -14 -79 -36 -106 -83 l-25 -42 0 -634 c0 -680 0
-672 -52 -696 -31 -16 -83 -1 -98 27 -6 11 -10 185 -10 442 0 278 -4 437 -11
463 -15 53 -73 110 -128 125 -95 25 -194 -32 -221 -128 -6 -23 -10 -238 -10
-582 l0 -545 56 -29 c61 -32 113 -86 146 -155 22 -45 23 -55 26 -428 1 -211 4
-383 6 -383 1 0 22 18 45 40 80 76 177 107 281 88 106 -19 191 -82 237 -176
26 -53 28 -65 27 -167 -3 -213 -63 -522 -134 -695 -45 -109 -77 -162 -211
-347 -202 -280 -232 -362 -233 -628 l-1 -170 587 -3 587 -2 4 982 c3 966 3
984 24 1063 41 151 84 231 259 470 150 206 210 336 254 554 26 128 53 377 47
424 -14 105 -135 167 -233 121 -53 -25 -67 -50 -123 -220 -52 -157 -140 -353
-185 -408 -22 -29 -27 -30 -158 -42 -169 -16 -279 -43 -388 -97 -165 -81 -271
-220 -305 -402 -11 -56 -21 -85 -36 -98 -50 -41 -129 -1 -129 66 0 19 9 69 20
113 85 338 369 538 821 579 l67 6 26 49 26 49 -2 594 -3 594 -28 36 c-67 89
-182 98 -266 22 -21 -20 -43 -51 -49 -73 -9 -28 -12 -192 -12 -560 l0 -521
-23 -27 c-17 -20 -33 -27 -57 -27 -24 0 -40 7 -57 27 l-23 27 0 635 c0 510 -3
641 -14 667 -17 43 -76 93 -123 106 -44 13 -47 12 -92 -1z"/>
<path d="M1382 4729 c-26 -13 -55 -39 -70 -62 l-27 -41 -5 -654 -5 -654 -24
-19 c-32 -26 -77 -24 -106 6 l-25 24 0 532 c0 522 0 534 -21 577 -51 104 -190
134 -275 60 -67 -59 -64 -27 -64 -674 l0 -586 27 -47 26 -48 111 -11 c200 -21
389 -87 515 -179 l55 -40 57 59 c80 82 131 103 244 103 73 0 98 -4 134 -23 25
-12 46 -22 47 -22 1 0 4 46 6 103 3 85 8 110 30 152 28 53 85 116 131 143 l27
16 0 366 c0 232 -4 379 -11 404 -15 55 -46 93 -94 116 -105 51 -223 -3 -254
-116 -7 -25 -11 -189 -11 -465 l0 -426 -23 -21 c-37 -35 -103 -26 -123 15 -5
10 -11 311 -14 669 l-5 651 -29 37 c-54 72 -145 94 -224 55z"/>
<path d="M276 3655 c-49 -17 -92 -59 -107 -102 -21 -63 24 -407 76 -588 40
-140 102 -255 234 -435 133 -182 210 -323 243 -445 22 -79 22 -89 26 -982 l3
-903 439 0 440 0 0 287 0 287 -39 100 c-53 136 -85 247 -112 396 -21 120 -23
152 -27 792 l-4 668 -51 51 c-114 112 -367 198 -584 199 -51 0 -67 4 -92 25
-44 38 -143 245 -202 425 -28 88 -60 165 -72 178 -45 49 -112 67 -171 47z"/>
<path d="M2244 3301 c-23 -10 -54 -36 -70 -57 l-29 -37 -5 -656 c-3 -361 -7
-657 -8 -658 -38 -36 -50 -43 -73 -43 -14 0 -38 9 -52 20 l-26 21 -3 447 -3
447 -27 47 c-53 89 -168 114 -256 55 -80 -52 -77 -26 -80 -707 -2 -363 1 -657
7 -734 17 -199 73 -419 150 -586 19 -42 21 -63 21 -352 l0 -308 620 0 620 0 0
128 c0 221 27 367 92 496 39 78 62 113 185 282 125 173 172 258 217 394 52
162 107 523 91 607 -9 47 -68 110 -116 123 -76 21 -160 -22 -191 -97 -9 -21
-33 -90 -53 -153 -45 -143 -155 -370 -194 -403 -25 -21 -42 -25 -142 -30 -139
-8 -282 -42 -388 -94 -56 -27 -96 -57 -152 -112 -85 -85 -120 -148 -144 -256
-25 -108 -28 -117 -57 -138 -48 -36 -118 3 -118 66 1 117 81 310 170 410 97
108 241 192 411 241 92 26 213 46 283 46 41 0 42 1 69 55 l27 55 0 581 c0 630
2 605 -57 661 -79 75 -209 59 -270 -33 l-28 -43 -5 -549 -5 -549 -24 -19 c-32
-26 -77 -24 -106 6 l-25 24 0 638 c0 598 -2 641 -19 678 -22 48 -44 69 -94 90
-48 20 -93 19 -143 -4z"/>
</g>
</svg>
